<?xml version="1.0" encoding="UTF-8"?>
<svg width="32" height="32" viewBox="0 0 32 32" fill="none" xmlns="http://www.w3.org/2000/svg">
  <rect width="32" height="32" rx="6" fill="url(#g)"/>
  <path d="M8 24C6 24 4 22 4 20C4 18 6 16 8 16C9 16 10 16.5 10.5 17L9 18.5C8.5 18 8 18 7.5 18C6.5 18 6 18.5 6 19C6 19.5 6.5 20 7.5 20C8 20 8.5 19.5 9 19L10.5 20.5C10 21.5 9 24 8 24Z" fill="white"/>
  <path d="M16 24C14 24 12 22 12 20C12 18 14 16 16 16C18 16 20 18 20 20C20 22 18 24 16 24ZM16 20C16.5 20 17 19.5 17 19C17 18.5 16.5 18 16 18C15.5 18 15 18.5 15 19C15 19.5 15.5 20 16 20Z" fill="white"/>
  <text x="22" y="20" font-family="Arial" font-weight="700" font-size="8" fill="white">SS</text>
  <defs>
    <linearGradient id="g" x1="0" y1="0" x2="32" y2="32" gradientUnits="userSpaceOnUse">
      <stop stop-color="#4F46E5"/>
      <stop offset="1" stop-color="#0EA5E9"/>
    </linearGradient>
  </defs>
</svg>