<?xml version="1.0" encoding="UTF-8"?>
<svg width="180" height="60" viewBox="0 0 180 60" fill="none" xmlns="http://www.w3.org/2000/svg">
  <rect width="180" height="60" rx="12" fill="url(#g)"/>
  <path d="M38 40C30 40 24 34.5 24 27.5C24 20.5 29.5 15 37 15C41.6 15 45.3 16.8 48 19.9L43.7 23.9C42 22 39.8 21 37.3 21C33.2 21 30.2 24.3 30.2 27.6C30.2 31 33 33.9 37.4 33.9C39.9 33.9 42.2 33 43.9 31.2L48.2 35.2C45.3 38.4 41.4 40 38 40Z" fill="white"/>
  <path d="M63 40C55 40 49 34.5 49 27.5C49 20.5 55 15 63 15C71 15 77 20.5 77 27.5C77 34.5 71 40 63 40ZM63 33.8C66.9 33.8 70 30.9 70 27.5C70 24.1 66.9 21.2 63 21.2C59.1 21.2 56 24.1 56 27.5C56 30.9 59.1 33.8 63 33.8Z" fill="white"/>
  <text x="90" y="34" font-family="Arial, Helvetica, sans-serif" font-weight="700" font-size="22" fill="white">SS GLOBAL</text>
  <defs>
    <linearGradient id="g" x1="0" y1="0" x2="180" y2="60" gradientUnits="userSpaceOnUse">
      <stop stop-color="#4F46E5"/>
      <stop offset="1" stop-color="#0EA5E9"/>
    </linearGradient>
  </defs>
</svg>
